<svg id="Calque_1" data-name="Calque 1" xmlns="http://www.w3.org/2000/svg" viewBox="0 0 2834.646 2834.646">
    <path d="M1151.211,2476.985c-237.251-1.164-462.776-46.851-662.427-182.454-106.146-72.095-188.437-164.224-211.136-296.833-3.568-20.846-4.032-42.414-4.049-63.649q-.376-480.1.353-960.2c.038-16.545,8.06-33.071,12.364-49.606,12.945,9.561,26.919,18.006,38.676,28.853,132.23,122.005,287.121,202.083,460.546,246.264,332.382,84.675,657.116,65.651,966.084-89.255,83.5-41.865,154.242-108.8,232.494-161.789,19.541-13.231,45.887-24.947,68.456-23.862,251.519,12.083,468.111,216.357,501,465.34,22.314,168.914-11.126,322.038-118.912,455.462-91.053,112.71-214.567,164.32-355.733,176.614-33.526,2.92-54.328,12.149-67.792,45.441-50.385,124.593-146.345,207.374-260.9,269.875C1563.808,2438.9,1362.381,2478.934,1151.211,2476.985Zm880.856-1004.147c0,85.365-.233,170.731.08,256.094.219,59.72,21.805,76.025,80.526,61.846,146.885-35.47,248.556-171.025,245.892-327.842-2.494-146.8-114.289-280.834-258.109-309.44-46.035-9.156-68.028,7.966-68.261,54.711C2031.757,1296.415,2032.069,1384.627,2032.067,1472.838Z"/>
    <path d="M314.553,562.3c6.893-101.572,65.565-190.882,152.679-263.731C607.947,180.9,775.023,124.209,953.11,99.216c264.778-37.16,521.29-10.014,762.007,115.309,77.63,40.415,147.341,91.81,198.843,163.568,10.854,15.123,18.924,42.788,12.158,57-6.561,13.784-34.5,25.845-51.938,24.477-62.089-4.871-124-14.072-185.446-24.72-231.712-40.156-447.593,8.651-656.456,108.954C828.061,641.879,610.661,673.774,385.743,659.014,327.3,655.178,311.8,636.565,314.553,562.3Z"/>
    <path d="M1148.526,1095.715c-225.435-3-440.415-45.229-630.2-174.994-39.506-27.012-74.043-61.767-108.732-95.174-20.536-19.778-39.483-44.139-22.054-75.361,18.606-33.328,48.6-21.287,76.07-15.274,103.021,22.544,206.9,45.01,312.025,21.315,81.4-18.348,163.064-39.663,240.733-69.691,292.048-112.909,593.845-147.1,904.093-123.092,51.721,4,73.635,35.961,57.873,89.361-32.924,111.552-106.112,193.383-198.4,258.9-178.569,126.774-380.835,178.957-597.268,183.975C1171.293,1095.945,1159.907,1095.715,1148.526,1095.715Z"/>
</svg>